<svg xmlns="http://www.w3.org/2000/svg" xmlns:xlink="http://www.w3.org/1999/xlink" width="172" zoomAndPan="magnify" viewBox="0 0 129 32.999998" height="44" preserveAspectRatio="xMidYMid meet" version="1.0"><defs><g/><clipPath id="2f6f8b041c"><path d="M 62 0 L 106 0 L 106 33 L 62 33 Z M 62 0 " clip-rule="nonzero"/></clipPath><clipPath id="16f9d201d0"><path d="M 60.496094 5.453125 L 102.769531 -4.796875 L 110.191406 25.820312 L 67.914062 36.066406 Z M 60.496094 5.453125 " clip-rule="nonzero"/></clipPath><clipPath id="3504a4a434"><path d="M 60.496094 5.453125 L 102.769531 -4.796875 L 110.191406 25.820312 L 67.914062 36.066406 Z M 60.496094 5.453125 " clip-rule="nonzero"/></clipPath></defs><g clip-path="url(#2f6f8b041c)"><g clip-path="url(#16f9d201d0)"><g clip-path="url(#3504a4a434)"><path fill="#c2410c" d="M 105.191406 9.53125 C 105.347656 10.128906 105.679688 10.488281 105.949219 10.6875 C 105.539062 11.242188 105.128906 11.792969 104.714844 12.34375 C 104.261719 12.003906 103.53125 11.285156 103.210938 10.070312 C 102.449219 11.089844 101.679688 12.097656 100.902344 13.101562 C 100.011719 14.25 99.109375 15.386719 98.195312 16.511719 C 97.277344 17.640625 96.347656 18.753906 95.402344 19.859375 C 94.453125 20.960938 93.488281 22.050781 92.5 23.125 C 91.511719 24.195312 90.5 25.25 89.453125 26.273438 C 88.40625 27.296875 87.324219 28.296875 86.175781 29.238281 C 85.023438 30.175781 83.820312 31.070312 82.449219 31.808594 C 81.761719 32.171875 81.027344 32.496094 80.199219 32.699219 C 79.78125 32.796875 79.339844 32.859375 78.871094 32.855469 C 78.640625 32.851562 78.398438 32.824219 78.15625 32.78125 C 77.917969 32.734375 77.675781 32.664062 77.441406 32.570312 C 77.207031 32.472656 76.984375 32.347656 76.773438 32.207031 C 76.585938 32.0625 76.394531 31.929688 76.226562 31.753906 C 76.050781 31.59375 75.902344 31.398438 75.753906 31.210938 C 75.6875 31.109375 75.621094 31.011719 75.558594 30.910156 C 75.523438 30.859375 75.496094 30.804688 75.46875 30.753906 L 75.390625 30.59375 C 75.183594 30.167969 75.046875 29.722656 74.976562 29.292969 L 74.949219 29.128906 L 74.929688 28.96875 C 74.921875 28.859375 74.90625 28.753906 74.898438 28.648438 C 74.894531 28.4375 74.878906 28.222656 74.886719 28.019531 C 74.90625 27.195312 75.035156 26.414062 75.210938 25.664062 C 75.386719 24.914062 75.605469 24.191406 75.851562 23.484375 C 76.34375 22.074219 76.921875 20.71875 77.523438 19.390625 C 78.125 18.058594 78.753906 16.753906 79.378906 15.453125 C 80 14.152344 80.621094 12.855469 81.195312 11.554688 C 81.765625 10.257812 82.304688 8.945312 82.691406 7.636719 C 82.882812 6.984375 83.035156 6.328125 83.105469 5.699219 L 83.125 5.46875 L 83.136719 5.351562 L 83.136719 5.238281 C 83.140625 5.164062 83.144531 5.085938 83.144531 5.015625 L 83.132812 4.796875 C 83.113281 4.515625 83.066406 4.253906 82.984375 4.027344 C 82.898438 3.808594 82.785156 3.628906 82.640625 3.476562 C 82.601562 3.441406 82.570312 3.398438 82.519531 3.367188 L 82.457031 3.316406 C 82.433594 3.300781 82.414062 3.28125 82.386719 3.265625 C 82.332031 3.230469 82.277344 3.199219 82.222656 3.164062 L 82.054688 3.078125 C 81.824219 2.972656 81.574219 2.898438 81.304688 2.855469 C 81.039062 2.8125 80.75 2.816406 80.457031 2.835938 C 79.867188 2.878906 79.246094 3.046875 78.628906 3.269531 C 78.011719 3.5 77.402344 3.789062 76.800781 4.113281 C 75.601562 4.773438 74.445312 5.566406 73.328125 6.417969 C 72.210938 7.273438 71.128906 8.191406 70.074219 9.144531 C 69.023438 10.101562 67.996094 11.089844 67 12.109375 C 66.5 12.617188 66.003906 13.132812 65.519531 13.652344 C 65.277344 13.914062 65.035156 14.175781 64.796875 14.4375 C 64.558594 14.699219 64.316406 14.96875 64.09375 15.226562 L 62.539062 13.890625 C 62.789062 13.601562 63.027344 13.335938 63.277344 13.0625 C 63.523438 12.789062 63.769531 12.519531 64.019531 12.253906 C 64.519531 11.71875 65.023438 11.191406 65.535156 10.671875 C 66.558594 9.628906 67.613281 8.609375 68.699219 7.625 C 69.785156 6.640625 70.90625 5.6875 72.082031 4.789062 C 73.257812 3.894531 74.488281 3.042969 75.820312 2.3125 C 76.488281 1.953125 77.183594 1.617188 77.921875 1.34375 C 78.660156 1.078125 79.445312 0.859375 80.296875 0.789062 C 80.71875 0.761719 81.160156 0.757812 81.605469 0.828125 C 82.050781 0.894531 82.5 1.023438 82.925781 1.21875 C 83.03125 1.273438 83.136719 1.324219 83.238281 1.378906 L 83.535156 1.566406 C 83.585938 1.59375 83.632812 1.636719 83.683594 1.675781 L 83.832031 1.789062 C 83.929688 1.863281 84.019531 1.957031 84.109375 2.046875 C 84.464844 2.410156 84.738281 2.859375 84.90625 3.316406 C 85.074219 3.773438 85.148438 4.226562 85.179688 4.664062 L 85.195312 4.988281 C 85.195312 5.09375 85.191406 5.199219 85.1875 5.304688 L 85.183594 5.460938 L 85.171875 5.617188 L 85.144531 5.921875 C 85.050781 6.730469 84.871094 7.484375 84.660156 8.214844 C 84.226562 9.675781 83.660156 11.042969 83.070312 12.382812 C 82.476562 13.722656 81.851562 15.035156 81.226562 16.339844 C 80.605469 17.640625 79.980469 18.9375 79.390625 20.234375 C 78.804688 21.535156 78.246094 22.839844 77.789062 24.15625 C 77.5625 24.8125 77.359375 25.472656 77.207031 26.128906 C 77.050781 26.785156 76.953125 27.4375 76.9375 28.058594 C 76.929688 28.214844 76.945312 28.359375 76.945312 28.511719 C 76.953125 28.585938 76.960938 28.65625 76.96875 28.730469 L 76.980469 28.835938 L 77 28.941406 C 77.042969 29.222656 77.125 29.472656 77.234375 29.695312 L 77.273438 29.777344 C 77.289062 29.808594 77.300781 29.835938 77.320312 29.859375 C 77.351562 29.910156 77.386719 29.960938 77.417969 30.011719 C 77.496094 30.101562 77.5625 30.203125 77.65625 30.28125 C 77.734375 30.371094 77.847656 30.441406 77.941406 30.519531 C 78.03125 30.582031 78.125 30.628906 78.222656 30.675781 C 78.324219 30.714844 78.429688 30.746094 78.542969 30.769531 C 78.65625 30.785156 78.777344 30.800781 78.902344 30.804688 C 79.160156 30.804688 79.4375 30.769531 79.722656 30.703125 C 80.300781 30.5625 80.902344 30.308594 81.488281 29.996094 C 82.660156 29.367188 83.792969 28.539062 84.875 27.652344 C 85.957031 26.761719 87.003906 25.800781 88.019531 24.808594 C 89.035156 23.8125 90.023438 22.785156 90.992188 21.734375 C 91.960938 20.683594 92.910156 19.609375 93.84375 18.523438 C 94.777344 17.4375 95.695312 16.332031 96.601562 15.21875 C 97.507812 14.105469 98.398438 12.980469 99.28125 11.84375 C 100.050781 10.851562 100.8125 9.851562 101.566406 8.84375 C 100.316406 8.871094 99.425781 8.355469 98.976562 8.015625 C 99.375 7.484375 99.773438 6.953125 100.167969 6.417969 C 100.441406 6.617188 100.875 6.832031 101.488281 6.8125 C 102.097656 6.792969 102.890625 6.535156 103.847656 5.789062 L 105.457031 6.921875 C 105.046875 8.101562 105.03125 8.933594 105.191406 9.53125 Z M 105.191406 9.53125 " fill-opacity="1" fill-rule="nonzero"/></g></g></g><g fill="#c2410c" fill-opacity="1"><g transform="translate(24.74704, 18.594068)"><g><path d="M 0.203125 0 L 0.203125 -6.9375 L 7.53125 -6.9375 L 7.53125 -4.953125 L 2.78125 -4.953125 L 2.78125 -4.3125 L 7.53125 -4.3125 L 7.53125 -2.625 L 2.78125 -2.625 L 2.78125 -1.984375 L 7.53125 -1.984375 L 7.53125 0 Z M 0.203125 0 "/></g></g></g><g fill="#ffffff" fill-opacity="1"><g transform="translate(32.62152, 18.594068)"><g><path d="M 0.203125 0 L 0.203125 -6.9375 L 3.375 -6.9375 L 5.515625 -2.96875 L 7.640625 -6.9375 L 10.8125 -6.9375 L 10.8125 0 L 8.234375 0 L 8.234375 -3.296875 L 6.34375 0 L 4.671875 0 L 2.78125 -3.296875 L 2.78125 0 Z M 0.203125 0 "/></g></g></g><g fill="#ffffff" fill-opacity="1"><g transform="translate(43.881644, 18.594068)"><g><path d="M 0.203125 0 L 0.203125 -6.9375 L 6.234375 -6.9375 C 6.765625 -6.9375 7.175781 -6.859375 7.46875 -6.703125 C 7.769531 -6.554688 7.984375 -6.351562 8.109375 -6.09375 C 8.234375 -5.832031 8.296875 -5.523438 8.296875 -5.171875 C 8.296875 -4.941406 8.25 -4.71875 8.15625 -4.5 C 8.0625 -4.28125 7.925781 -4.070312 7.75 -3.875 C 8.0625 -3.65625 8.3125 -3.390625 8.5 -3.078125 C 8.695312 -2.765625 8.796875 -2.421875 8.796875 -2.046875 C 8.796875 -1.671875 8.71875 -1.328125 8.5625 -1.015625 C 8.40625 -0.710938 8.160156 -0.46875 7.828125 -0.28125 C 7.492188 -0.09375 7.0625 0 6.53125 0 Z M 2.78125 -4.5 L 5.15625 -4.5 C 5.28125 -4.5 5.40625 -4.515625 5.53125 -4.546875 C 5.65625 -4.578125 5.71875 -4.6875 5.71875 -4.875 C 5.71875 -5.0625 5.65625 -5.171875 5.53125 -5.203125 C 5.40625 -5.234375 5.28125 -5.25 5.15625 -5.25 L 2.78125 -5.25 Z M 2.78125 -1.875 L 5.640625 -1.875 C 5.773438 -1.875 5.90625 -1.890625 6.03125 -1.921875 C 6.15625 -1.953125 6.21875 -2.0625 6.21875 -2.25 C 6.21875 -2.4375 6.15625 -2.539062 6.03125 -2.5625 C 5.90625 -2.59375 5.773438 -2.609375 5.640625 -2.609375 L 2.78125 -2.609375 Z M 2.78125 -1.875 "/></g></g></g><g fill="#ffffff" fill-opacity="1"><g transform="translate(53.022463, 18.594068)"><g><path d="M 0.09375 0 L 2.96875 -6.9375 L 6.796875 -6.9375 L 9.671875 0 L 6.828125 0 L 6.359375 -1.25 L 3.40625 -1.25 L 2.9375 0 Z M 4.078125 -3.03125 L 5.6875 -3.03125 L 4.890625 -5.15625 Z M 4.078125 -3.03125 "/></g></g></g><g fill="#ffffff" fill-opacity="1"><g transform="translate(63.034771, 18.594068)"><g><path d="M 0.203125 0 L 0.203125 -6.9375 L 5.640625 -6.9375 C 6.171875 -6.9375 6.632812 -6.820312 7.03125 -6.59375 C 7.425781 -6.363281 7.734375 -6.046875 7.953125 -5.640625 C 8.179688 -5.242188 8.296875 -4.789062 8.296875 -4.28125 C 8.296875 -3.78125 8.1875 -3.328125 7.96875 -2.921875 C 7.75 -2.523438 7.453125 -2.210938 7.078125 -1.984375 L 8.296875 0 L 5.25 0 L 4.296875 -1.625 L 2.78125 -1.625 L 2.78125 0 Z M 2.78125 -3.796875 L 5.15625 -3.796875 C 5.238281 -3.796875 5.320312 -3.800781 5.40625 -3.8125 C 5.5 -3.832031 5.570312 -3.875 5.625 -3.9375 C 5.6875 -4.007812 5.71875 -4.125 5.71875 -4.28125 C 5.71875 -4.4375 5.6875 -4.546875 5.625 -4.609375 C 5.570312 -4.679688 5.5 -4.722656 5.40625 -4.734375 C 5.320312 -4.742188 5.238281 -4.75 5.15625 -4.75 L 2.78125 -4.75 Z M 2.78125 -3.796875 "/></g></g></g><g fill="#ffffff" fill-opacity="1"><g transform="translate(71.684438, 18.594068)"><g><path d="M 8.203125 1.0625 L 6.890625 -0.25 C 6.253906 -0.0195312 5.46875 0.09375 4.53125 0.09375 C 3 0.09375 1.890625 -0.203125 1.203125 -0.796875 C 0.515625 -1.390625 0.171875 -2.285156 0.171875 -3.484375 C 0.171875 -4.660156 0.515625 -5.546875 1.203125 -6.140625 C 1.890625 -6.734375 3 -7.03125 4.53125 -7.03125 C 6.050781 -7.03125 7.15625 -6.734375 7.84375 -6.140625 C 8.539062 -5.546875 8.890625 -4.660156 8.890625 -3.484375 C 8.890625 -3.171875 8.863281 -2.878906 8.8125 -2.609375 C 8.757812 -2.335938 8.675781 -2.085938 8.5625 -1.859375 L 9.84375 -0.578125 Z M 4.53125 -1.859375 C 5.070312 -1.859375 5.488281 -1.925781 5.78125 -2.0625 C 6.070312 -2.207031 6.273438 -2.398438 6.390625 -2.640625 C 6.503906 -2.878906 6.5625 -3.160156 6.5625 -3.484375 C 6.5625 -3.796875 6.503906 -4.070312 6.390625 -4.3125 C 6.285156 -4.550781 6.082031 -4.738281 5.78125 -4.875 C 5.488281 -5.007812 5.070312 -5.078125 4.53125 -5.078125 C 3.988281 -5.078125 3.566406 -5.007812 3.265625 -4.875 C 2.972656 -4.738281 2.769531 -4.550781 2.65625 -4.3125 C 2.550781 -4.070312 2.5 -3.796875 2.5 -3.484375 C 2.5 -3.160156 2.550781 -2.875 2.65625 -2.625 C 2.769531 -2.382812 2.972656 -2.195312 3.265625 -2.0625 C 3.566406 -1.925781 3.988281 -1.859375 4.53125 -1.859375 Z M 4.53125 -1.859375 "/></g></g></g><g fill="#ffffff" fill-opacity="1"><g transform="translate(82.043363, 18.594068)"><g><path d="M 4.625 0.09375 C 3.101562 0.09375 1.992188 -0.195312 1.296875 -0.78125 C 0.609375 -1.375 0.265625 -2.273438 0.265625 -3.484375 L 0.265625 -6.9375 L 2.59375 -6.9375 L 2.59375 -3.484375 C 2.59375 -3.273438 2.617188 -3.070312 2.671875 -2.875 C 2.722656 -2.6875 2.816406 -2.515625 2.953125 -2.359375 C 3.085938 -2.203125 3.289062 -2.078125 3.5625 -1.984375 C 3.832031 -1.898438 4.1875 -1.859375 4.625 -1.859375 C 5.070312 -1.859375 5.429688 -1.90625 5.703125 -2 C 5.972656 -2.09375 6.175781 -2.21875 6.3125 -2.375 C 6.445312 -2.53125 6.539062 -2.703125 6.59375 -2.890625 C 6.644531 -3.085938 6.671875 -3.285156 6.671875 -3.484375 L 6.671875 -6.9375 L 8.984375 -6.9375 L 8.984375 -3.484375 C 8.984375 -2.273438 8.632812 -1.375 7.9375 -0.78125 C 7.25 -0.195312 6.144531 0.09375 4.625 0.09375 Z M 4.625 0.09375 "/></g></g></g><g fill="#ffffff" fill-opacity="1"><g transform="translate(91.550603, 18.594068)"><g><path d="M 0.265625 0 L 0.265625 -6.9375 L 7.59375 -6.9375 L 7.59375 -5.125 L 2.59375 -5.125 L 2.59375 -4.25 L 7.59375 -4.25 L 7.59375 -2.6875 L 2.59375 -2.6875 L 2.59375 -1.796875 L 7.59375 -1.796875 L 7.59375 0 Z M 0.265625 0 "/></g></g></g><g fill="#ffffff" fill-opacity="1"><g transform="translate(99.572349, 18.594068)"><g><path d="M 0.265625 0 L 0.265625 -6.9375 L 2.59375 -6.9375 L 2.59375 0 Z M 0.265625 0 "/></g></g></g></svg>